<?xml version="1.0" standalone="no"?>
<!DOCTYPE svg PUBLIC "-//W3C//DTD SVG 20010904//EN"
 "http://www.w3.org/TR/2001/REC-SVG-20010904/DTD/svg10.dtd">
<svg version="1.0" xmlns="http://www.w3.org/2000/svg"
 width="270.000000pt" height="270.000000pt" viewBox="0 0 270.000000 270.000000"
 preserveAspectRatio="xMidYMid meet">
<metadata>
Created by potrace 1.14, written by Peter Selinger 2001-2017
</metadata>
<g transform="translate(0.000000,270.000000) scale(0.100000,-0.100000)"
fill="#000000" stroke="none">
<path d="M1110 2573 c-305 -47 -536 -160 -736 -358 -203 -203 -315 -429 -358
-727 -6 -42 -8 -214 -2 -268 19 -192 90 -389 202 -557 58 -87 211 -251 274
-293 19 -13 37 -27 40 -30 14 -16 144 -90 218 -123 89 -40 233 -83 322 -95
104 -13 339 -7 428 12 234 50 443 157 608 311 l69 64 65 1 c320 5 390 10 433
32 20 10 23 47 5 49 -7 1 -37 3 -66 4 -89 5 -152 34 -240 111 l-33 29 29 56
c53 104 101 249 119 364 4 28 8 122 7 210 -1 138 -4 174 -27 261 -43 167 -113
322 -196 434 -119 160 -289 304 -460 390 -74 37 -248 96 -312 105 -24 4 -48 9
-53 12 -10 7 -299 12 -336 6z m257 -138 c114 -10 333 -75 370 -109 9 -8 -113
-11 -486 -11 -275 0 -497 3 -494 8 10 17 191 81 276 98 28 6 79 13 112 16 33
3 61 6 62 7 3 2 86 -2 160 -9z m-846 -907 c0 -387 -4 -636 -10 -656 -6 -19
-24 -55 -40 -81 -30 -47 -88 -108 -94 -100 -50 62 -105 159 -138 241 -144 359
-94 764 134 1068 48 65 139 162 145 156 2 -3 4 -285 3 -628z m1609 471 c0 -4
6 -14 13 -21 39 -43 84 -125 128 -235 78 -198 96 -460 43 -653 -24 -88 -57
-180 -65 -180 -7 0 -25 28 -72 110 -11 19 -59 112 -107 207 -92 180 -134 246
-175 277 -27 20 -32 36 -12 36 19 0 76 56 88 87 7 17 11 125 11 283 l1 255 73
-79 c41 -43 74 -82 74 -87z m-649 112 c24 -19 24 -21 24 -211 l0 -192 -29 -23
c-37 -30 -184 -71 -284 -80 -97 -9 -95 -108 2 -112 75 -3 150 -44 230 -126 82
-85 138 -174 190 -307 95 -239 200 -394 321 -475 31 -20 53 -41 49 -47 -16
-26 -175 -132 -257 -173 -101 -49 -237 -92 -325 -101 -134 -14 -275 -8 -392
17 -180 39 -394 154 -515 278 l-39 41 234 0 c208 0 240 3 276 19 42 19 75 56
90 101 4 14 8 328 8 698 l1 674 24 19 c21 17 41 19 196 19 155 0 175 -2 196
-19z"/>
</g>
</svg>
